# xmcd CD database file
#
# Track frame offsets:
#	150
#	70515
#	143705
#	208392
#	231712
#
# Disc length: 3535 seconds
#
# Revision: 0
# Processed by: cddbd v1.5.2PL0 Copyright (c) Steve Scherf et al.
# Submitted via: CDex 1.70beta2
#
DISCID=4c0dcd05
DTITLE=Braxton, Anthony - Composition No. 173
DYEAR=1996
DGENRE=Jazz
TTITLE0=Opening Music - Introduction
TTITLE1=Scene One - Interlude Duo
TTITLE2=Scene Two (A) - Interlude Ensemble
TTITLE3=Scene Two (B)
TTITLE4=Closing Music#
EXTD=YEAR: 1996
EXTT0=
EXTT1=
EXTT2=
EXTT3=
EXTT4=
PLAYORDER=
